<svg width="80" height="88" viewBox="0 0 80 88" fill="none" xmlns="http://www.w3.org/2000/svg">
<g filter="url(#filter0_b_18_592)">
<path d="M0 47.8954C0 25.8618 17.9664 8 40 8C62.0336 8 80 25.8618 80 47.8954C80 69.929 62.0336 87.7908 40 87.7908C17.9664 87.7908 0 69.929 0 47.8954Z" fill="url(#paint0_radial_18_592)"/>
<path d="M0.5 47.8954C0.5 26.1396 18.2408 8.5 40 8.5C61.7592 8.5 79.5 26.1396 79.5 47.8954C79.5 69.6512 61.7592 87.2908 40 87.2908C18.2408 87.2908 0.5 69.6512 0.5 47.8954Z" stroke="url(#paint1_radial_18_592)"/>
<path d="M0.5 47.8954C0.5 26.1396 18.2408 8.5 40 8.5C61.7592 8.5 79.5 26.1396 79.5 47.8954C79.5 69.6512 61.7592 87.2908 40 87.2908C18.2408 87.2908 0.5 69.6512 0.5 47.8954Z" stroke="url(#paint2_radial_18_592)"/>
<path d="M0.5 47.8954C0.5 26.1396 18.2408 8.5 40 8.5C61.7592 8.5 79.5 26.1396 79.5 47.8954C79.5 69.6512 61.7592 87.2908 40 87.2908C18.2408 87.2908 0.5 69.6512 0.5 47.8954Z" stroke="url(#paint3_radial_18_592)"/>
</g>
<g filter="url(#filter1_f_18_592)">
<ellipse cx="39.7435" cy="29.4822" rx="25.3846" ry="16.3673" fill="url(#paint4_radial_18_592)" fill-opacity="0.2"/>
</g>
<path d="M35.022 35.5556C34.3619 35.5556 33.7289 35.8178 33.2621 36.2845C32.7954 36.7513 32.5331 37.3844 32.5331 38.0445C32.5331 38.7046 32.7954 39.3376 33.2621 39.8044C33.7289 40.2711 34.3619 40.5333 35.022 40.5333H48.925L45.7068 43.7515C45.2535 44.2209 45.0026 44.8496 45.0083 45.5022C45.0139 46.1547 45.2757 46.779 45.7371 47.2404C46.1986 47.7019 46.8228 47.9637 47.4754 47.9693C48.128 47.975 48.7567 47.7241 49.2261 47.2708L56.6928 39.8041C57.1594 39.3374 57.4215 38.7044 57.4215 38.0445C57.4215 37.3845 57.1594 36.7515 56.6928 36.2848L49.2261 28.8181C48.9965 28.5804 48.7219 28.3908 48.4182 28.2604C48.1146 28.1299 47.788 28.0613 47.4575 28.0584C47.127 28.0555 46.7993 28.1185 46.4934 28.2437C46.1876 28.3688 45.9097 28.5536 45.676 28.7873C45.4423 29.021 45.2575 29.2989 45.1323 29.6048C45.0072 29.9106 44.9442 30.2384 44.9471 30.5688C44.95 30.8993 45.0186 31.2259 45.1491 31.5296C45.2795 31.8332 45.4691 32.1078 45.7068 32.3374L48.925 35.5556H35.022Z" fill="url(#paint5_linear_18_592)"/>
<path d="M44.9776 60.4445C45.6377 60.4445 46.2707 60.1822 46.7375 59.7155C47.2043 59.2487 47.4665 58.6157 47.4665 57.9556C47.4665 57.2955 47.2043 56.6624 46.7375 56.1957C46.2707 55.7289 45.6377 55.4667 44.9776 55.4667H31.0747L34.2928 52.2485C34.5305 52.019 34.7201 51.7443 34.8506 51.4407C34.981 51.137 35.0497 50.8104 35.0525 50.4799C35.0554 50.1495 34.9924 49.8217 34.8673 49.5159C34.7421 49.21 34.5573 48.9321 34.3236 48.6984C34.09 48.4647 33.8121 48.2799 33.5062 48.1548C33.2003 48.0296 32.8726 47.9667 32.5421 47.9695C32.2116 47.9724 31.885 48.0411 31.5814 48.1715C31.2777 48.3019 31.0031 48.4915 30.7735 48.7293L23.3068 56.1959C22.8402 56.6627 22.5781 57.2956 22.5781 57.9556C22.5781 58.6155 22.8402 59.2485 23.3068 59.7152L30.7735 67.1819C31.2429 67.6352 31.8716 67.8861 32.5242 67.8804C33.1768 67.8748 33.801 67.613 34.2625 67.1516C34.7239 66.6901 34.9857 66.0659 34.9914 65.4133C34.997 64.7607 34.7462 64.132 34.2928 63.6626L31.0747 60.4445H44.9776Z" fill="url(#paint6_linear_18_592)"/>
<defs>
<filter id="filter0_b_18_592" x="-5" y="3" width="90" height="89.7908" filterUnits="userSpaceOnUse" color-interpolation-filters="sRGB">
<feFlood flood-opacity="0" result="BackgroundImageFix"/>
<feGaussianBlur in="BackgroundImage" stdDeviation="2.5"/>
<feComposite in2="SourceAlpha" operator="in" result="effect1_backgroundBlur_18_592"/>
<feBlend mode="normal" in="SourceGraphic" in2="effect1_backgroundBlur_18_592" result="shape"/>
</filter>
<filter id="filter1_f_18_592" x="1.40435" y="0.160334" width="76.6784" height="58.6437" filterUnits="userSpaceOnUse" color-interpolation-filters="sRGB">
<feFlood flood-opacity="0" result="BackgroundImageFix"/>
<feBlend mode="normal" in="SourceGraphic" in2="BackgroundImageFix" result="shape"/>
<feGaussianBlur stdDeviation="6.47727" result="effect1_foregroundBlur_18_592"/>
</filter>
<radialGradient id="paint0_radial_18_592" cx="0" cy="0" r="1" gradientUnits="userSpaceOnUse" gradientTransform="translate(6.69204 8) rotate(47.9449) scale(119.431 86.7751)">
<stop stop-color="white" stop-opacity="0.36"/>
<stop offset="1" stop-color="white" stop-opacity="0"/>
</radialGradient>
<radialGradient id="paint1_radial_18_592" cx="0" cy="0" r="1" gradientUnits="userSpaceOnUse" gradientTransform="translate(-42.5965 16.1628) rotate(35.0407) scale(92.1512 54.3882)">
<stop stop-color="white"/>
<stop offset="1" stop-color="white" stop-opacity="0.06"/>
</radialGradient>
<radialGradient id="paint2_radial_18_592" cx="0" cy="0" r="1" gradientUnits="userSpaceOnUse" gradientTransform="translate(103.421 61.4008) rotate(161.385) scale(66.8428 45.1784)">
<stop stop-color="#8470FF"/>
<stop offset="1" stop-color="#865CFF" stop-opacity="0"/>
</radialGradient>
<radialGradient id="paint3_radial_18_592" cx="0" cy="0" r="1" gradientUnits="userSpaceOnUse" gradientTransform="translate(40.871 -10.2359) rotate(47.2149) scale(44.643 32.0879)">
<stop/>
<stop offset="1" stop-color="white" stop-opacity="0"/>
</radialGradient>
<radialGradient id="paint4_radial_18_592" cx="0" cy="0" r="1" gradientUnits="userSpaceOnUse" gradientTransform="translate(39.7435 13.1149) rotate(90) scale(24.2566 37.625)">
<stop stop-color="white"/>
<stop offset="1" stop-color="white" stop-opacity="0"/>
</radialGradient>
<linearGradient id="paint5_linear_18_592" x1="28.9298" y1="87.3768" x2="80.7249" y2="52.0872" gradientUnits="userSpaceOnUse">
<stop stop-color="#982DEC"/>
<stop offset="0.572917" stop-color="#DC8DF8"/>
<stop offset="0.895833" stop-color="#A9C4F3"/>
</linearGradient>
<linearGradient id="paint6_linear_18_592" x1="28.9298" y1="87.3768" x2="80.7249" y2="52.0872" gradientUnits="userSpaceOnUse">
<stop stop-color="#982DEC"/>
<stop offset="0.572917" stop-color="#DC8DF8"/>
<stop offset="0.895833" stop-color="#A9C4F3"/>
</linearGradient>
</defs>
</svg>
