<svg width="61" height="60" viewBox="0 0 61 60" fill="none" xmlns="http://www.w3.org/2000/svg">
<path d="M32.3366 24.5042L32.4255 25.4348L33.1502 24.8443L48.2533 12.5389L35.7532 27.3818L35.1368 28.1138L36.0897 28.2018L55.5625 30L36.0897 31.7982L35.1368 31.8862L35.7532 32.6182L48.2533 47.4611L33.1502 35.1557L32.4255 34.5652L32.3366 35.4958L30.5 54.7378L28.6634 35.4958L28.5745 34.5652L27.8498 35.1557L12.7467 47.4611L25.2468 32.6182L25.8632 31.8862L24.9103 31.7982L5.4375 30L24.9103 28.2018L25.8632 28.1138L25.2468 27.3818L12.7467 12.5389L27.8498 24.8443L28.5745 25.4348L28.6634 24.5042L30.5 5.26221L32.3366 24.5042Z" fill="white" stroke="black"/>
</svg>
